# Blender 4.3.2
# www.blender.org
mtllib wall_sphere.mtl
o Icosphere
v 0.000000 -23.880301 0.000000
v 18.874874 -10.679736 14.558672
v -7.209420 -10.679745 23.556643
v -23.330585 -10.679644 0.000000
v -7.209420 -10.679745 -23.556643
v 18.874874 -10.679736 -14.558672
v 7.209420 10.679745 23.556643
v -18.874874 10.679736 14.558672
v -18.874874 10.679736 -14.558672
v 7.209420 10.679745 -23.556643
v 23.330585 10.679644 0.000000
v 0.000000 23.880301 0.000000
v -4.237558 -20.313883 13.846141
v 11.094294 -20.313877 8.557312
v 6.856780 -12.554773 22.403591
v 22.188652 -12.554731 0.000000
v 11.094294 -20.313877 -8.557312
v -13.713354 -20.313818 0.000000
v -17.951017 -12.554739 13.846188
v -4.237558 -20.313883 -13.846141
v -17.951017 -12.554739 -13.846188
v 6.856780 -12.554773 -22.403591
v 24.807789 0.000000 8.557346
v 24.807789 0.000000 -8.557346
v 0.000000 0.000000 27.692543
v 15.332044 0.000000 22.403732
v -24.807789 0.000000 8.557346
v -15.332044 0.000000 22.403732
v -15.332044 0.000000 -22.403732
v -24.807789 0.000000 -8.557346
v 15.332044 0.000000 -22.403732
v 0.000000 0.000000 -27.692543
v 17.951017 12.554739 13.846188
v -6.856780 12.554773 22.403591
v -22.188652 12.554731 0.000000
v -6.856780 12.554773 -22.403591
v 17.951017 12.554739 -13.846188
v 4.237558 20.313881 13.846141
v 13.713354 20.313818 0.000000
v -11.094294 20.313877 8.557312
v -11.094294 20.313877 -8.557312
v 4.237558 20.313881 -13.846141
vn 0.0950 -0.9566 0.2755
vn 0.6749 -0.6966 0.2433
vn -0.2480 -0.9538 0.1698
vn -0.2480 -0.9538 -0.1698
vn 0.0950 -0.9566 -0.2755
vn 0.8992 -0.3586 0.2508
vn 0.0258 -0.3761 0.9262
vn -0.8853 -0.3591 0.2953
vn -0.5871 -0.3687 -0.7207
vn 0.5476 -0.3697 -0.7506
vn 0.8172 -0.1397 0.5592
vn -0.3227 -0.1444 0.9354
vn -0.9906 -0.1370 -0.0000
vn -0.3227 -0.1444 -0.9354
vn 0.8172 -0.1397 -0.5592
vn 0.4010 0.7087 0.5804
vn -0.4608 0.7066 0.5370
vn -0.6749 0.6966 -0.2433
vn 0.0381 0.7152 -0.6979
vn 0.6966 0.6954 -0.1765
vn 0.2480 0.9538 -0.1698
vn 0.4667 0.8248 -0.3194
vn 0.4010 0.7087 -0.5804
vn -0.0950 0.9566 -0.2755
vn -0.1801 0.8336 -0.5222
vn -0.4608 0.7066 -0.5370
vn -0.3060 0.9520 -0.0000
vn -0.5731 0.8195 -0.0000
vn -0.6749 0.6966 0.2433
vn -0.0950 0.9566 0.2755
vn -0.1801 0.8336 0.5222
vn 0.0381 0.7152 0.6979
vn 0.2480 0.9538 0.1698
vn 0.4667 0.8248 0.3194
vn 0.6966 0.6954 0.1765
vn 0.8853 0.3591 -0.2953
vn 0.8072 0.2081 -0.5524
vn 0.5871 0.3687 -0.7207
vn -0.0258 0.3761 -0.9262
vn -0.3185 0.2150 -0.9232
vn -0.5476 0.3697 -0.7506
vn -0.8992 0.3586 -0.2508
vn -0.9789 0.2042 -0.0000
vn -0.8992 0.3586 0.2508
vn -0.5476 0.3697 0.7506
vn -0.3185 0.2150 0.9232
vn -0.0258 0.3761 0.9262
vn 0.5871 0.3687 0.7207
vn 0.8072 0.2081 0.5524
vn 0.8853 0.3591 0.2953
vn 0.3227 0.1444 -0.9354
vn 0.3185 -0.2150 -0.9232
vn 0.0258 -0.3761 -0.9262
vn -0.8172 0.1397 -0.5592
vn -0.8072 -0.2081 -0.5524
vn -0.8853 -0.3591 -0.2953
vn -0.8172 0.1397 0.5592
vn -0.8072 -0.2081 0.5524
vn -0.5871 -0.3687 0.7207
vn 0.3227 0.1444 0.9354
vn 0.3185 -0.2150 0.9232
vn 0.5476 -0.3697 0.7506
vn 0.9906 0.1370 -0.0000
vn 0.9789 -0.2042 -0.0000
vn 0.8992 -0.3586 -0.2508
vn 0.4608 -0.7066 -0.5370
vn 0.1801 -0.8336 -0.5222
vn -0.0381 -0.7152 -0.6979
vn -0.4010 -0.7087 -0.5804
vn -0.4667 -0.8248 -0.3194
vn -0.6966 -0.6954 -0.1765
vn -0.6966 -0.6954 0.1765
vn -0.4667 -0.8248 0.3194
vn -0.4010 -0.7087 0.5804
vn 0.6749 -0.6966 -0.2433
vn 0.5731 -0.8195 -0.0000
vn 0.3060 -0.9520 -0.0000
vn -0.0381 -0.7152 0.6979
vn 0.1801 -0.8336 0.5222
vn 0.4608 -0.7066 0.5370
vt 0.181819 0.000000
vt 0.227273 0.078731
vt 0.136365 0.078731
vt 0.272728 0.157461
vt 0.318182 0.078731
vt 0.363637 0.157461
vt 0.909091 0.000000
vt 0.954545 0.078731
vt 0.863636 0.078731
vt 0.727273 0.000000
vt 0.772727 0.078731
vt 0.681818 0.078731
vt 0.545455 0.000000
vt 0.590909 0.078731
vt 0.500000 0.078731
vt 0.318182 0.236191
vt 0.090910 0.157461
vt 0.181819 0.157461
vt 0.136365 0.236191
vt 0.818182 0.157461
vt 0.909091 0.157461
vt 0.863636 0.236191
vt 0.636364 0.157461
vt 0.727273 0.157461
vt 0.681818 0.236191
vt 0.454546 0.157461
vt 0.545455 0.157461
vt 0.500000 0.236191
vt 0.227273 0.236191
vt 0.045455 0.236191
vt 0.772727 0.236191
vt 0.590909 0.236191
vt 0.409092 0.236191
vt 0.181819 0.314921
vt 0.272728 0.314921
vt 0.227273 0.393651
vt 0.000000 0.314921
vt 0.090910 0.314921
vt 0.045455 0.393651
vt 0.727273 0.314921
vt 0.818182 0.314921
vt 0.772727 0.393651
vt 0.545455 0.314921
vt 0.636364 0.314921
vt 0.590909 0.393651
vt 0.363637 0.314921
vt 0.454546 0.314921
vt 0.409092 0.393651
vt 0.500000 0.393651
vt 0.454546 0.472382
vt 0.681818 0.393651
vt 0.636364 0.472382
vt 0.863636 0.393651
vt 0.818182 0.472382
vt 0.909091 0.314921
vt 0.136365 0.393651
vt 0.090910 0.472382
vt 0.318182 0.393651
vt 0.272728 0.472382
vt 0.954545 0.236191
vt 1.000000 0.157461
vt 0.409092 0.078731
vt 0.363637 0.000000
s 0
usemtl wall.001
f 1/1/1 14/2/1 13/3/1
f 2/4/2 14/5/2 16/6/2
f 1/7/3 13/8/3 18/9/3
f 1/10/4 18/11/4 20/12/4
f 1/13/5 20/14/5 17/15/5
f 2/4/6 16/6/6 23/16/6
f 3/17/7 15/18/7 25/19/7
f 4/20/8 19/21/8 27/22/8
f 5/23/9 21/24/9 29/25/9
f 6/26/10 22/27/10 31/28/10
f 2/4/11 23/16/11 26/29/11
f 3/17/12 25/19/12 28/30/12
f 4/20/13 27/22/13 30/31/13
f 5/23/14 29/25/14 32/32/14
f 6/26/15 31/28/15 24/33/15
f 7/34/16 33/35/16 38/36/16
f 8/37/17 34/38/17 40/39/17
f 9/40/18 35/41/18 41/42/18
f 10/43/19 36/44/19 42/45/19
f 11/46/20 37/47/20 39/48/20
f 39/48/21 42/49/21 12/50/21
f 39/48/22 37/47/22 42/49/22
f 37/47/23 10/43/23 42/49/23
f 42/45/24 41/51/24 12/52/24
f 42/45/25 36/44/25 41/51/25
f 36/44/26 9/40/26 41/51/26
f 41/42/27 40/53/27 12/54/27
f 41/42/28 35/41/28 40/53/28
f 35/41/29 8/55/29 40/53/29
f 40/39/30 38/56/30 12/57/30
f 40/39/31 34/38/31 38/56/31
f 34/38/32 7/34/32 38/56/32
f 38/36/33 39/58/33 12/59/33
f 38/36/34 33/35/34 39/58/34
f 33/35/35 11/46/35 39/58/35
f 24/33/36 37/47/36 11/46/36
f 24/33/37 31/28/37 37/47/37
f 31/28/38 10/43/38 37/47/38
f 32/32/39 36/44/39 10/43/39
f 32/32/40 29/25/40 36/44/40
f 29/25/41 9/40/41 36/44/41
f 30/31/42 35/41/42 9/40/42
f 30/31/43 27/22/43 35/41/43
f 27/22/44 8/55/44 35/41/44
f 28/30/45 34/38/45 8/37/45
f 28/30/46 25/19/46 34/38/46
f 25/19/47 7/34/47 34/38/47
f 26/29/48 33/35/48 7/34/48
f 26/29/49 23/16/49 33/35/49
f 23/16/50 11/46/50 33/35/50
f 31/28/51 32/32/51 10/43/51
f 31/28/52 22/27/52 32/32/52
f 22/27/53 5/23/53 32/32/53
f 29/25/54 30/31/54 9/40/54
f 29/25/55 21/24/55 30/31/55
f 21/24/56 4/20/56 30/31/56
f 27/22/57 28/60/57 8/55/57
f 27/22/58 19/21/58 28/60/58
f 19/21/59 3/61/59 28/60/59
f 25/19/60 26/29/60 7/34/60
f 25/19/61 15/18/61 26/29/61
f 15/18/62 2/4/62 26/29/62
f 23/16/63 24/33/63 11/46/63
f 23/16/64 16/6/64 24/33/64
f 16/6/65 6/26/65 24/33/65
f 17/15/66 22/27/66 6/26/66
f 17/15/67 20/14/67 22/27/67
f 20/14/68 5/23/68 22/27/68
f 20/12/69 21/24/69 5/23/69
f 20/12/70 18/11/70 21/24/70
f 18/11/71 4/20/71 21/24/71
f 18/9/72 19/21/72 4/20/72
f 18/9/73 13/8/73 19/21/73
f 13/8/74 3/61/74 19/21/74
f 16/6/75 17/62/75 6/26/75
f 16/6/76 14/5/76 17/62/76
f 14/5/77 1/63/77 17/62/77
f 13/3/78 15/18/78 3/17/78
f 13/3/79 14/2/79 15/18/79
f 14/2/80 2/4/80 15/18/80
